<svg width="201" height="57" viewBox="0 0 201 57" fill="none" xmlns="http://www.w3.org/2000/svg">
<path d="M57.256 25.156C55.864 25.348 54.712 25.444 53.8 25.444C53.488 25.444 53.332 25.324 53.332 25.084C53.332 24.532 53.704 23.956 54.448 23.356C55.216 22.732 56.452 22.192 58.156 21.736C58.924 19 59.8 16.492 60.784 14.212C58.384 14.332 56.416 15.124 54.88 16.588C54.496 16.972 54.184 17.272 53.944 17.488C53.704 17.704 53.488 17.812 53.296 17.812C53.128 17.812 52.96 17.668 52.792 17.38C52.624 17.092 52.54 16.708 52.54 16.228C52.564 14.38 53.812 12.88 56.284 11.728C58.756 10.576 61.804 10.012 65.428 10.036L76.228 10.216C76.876 10.216 77.2 10.468 77.2 10.972C77.2 11.116 77.104 11.38 76.912 11.764C76.72 12.124 76.552 12.52 76.408 12.952C76.096 13.816 75.424 14.248 74.392 14.248H73.24L68.452 14.212H65.68C65.488 15.58 64.912 17.812 63.952 20.908L70.54 21.016C70.924 21.016 71.116 21.244 71.116 21.7C71.116 21.844 71.056 22.096 70.936 22.456C70.816 22.816 70.708 23.188 70.612 23.572C70.42 24.364 70.012 24.76 69.388 24.76L63.916 24.508H63.448C63.304 24.508 63.136 24.52 62.944 24.544C61.696 29.128 61.072 32.752 61.072 35.416C61.072 36.832 59.692 37.54 56.932 37.54C56.332 37.54 55.972 37.24 55.852 36.64C55.756 36.016 55.708 35.2 55.708 34.192C55.708 32.032 56.224 29.02 57.256 25.156ZM100.38 28.504C100.788 28.504 100.992 29.056 100.992 30.16C100.992 30.76 100.74 31.492 100.236 32.356C99.7318 33.196 99.0718 33.976 98.2558 34.696C97.4638 35.392 96.5758 35.968 95.5918 36.424C94.6078 36.88 93.6718 37.108 92.7838 37.108C91.8958 37.108 91.1998 36.94 90.6958 36.604C90.1918 36.268 89.7958 35.812 89.5078 35.236C89.0998 34.42 88.7638 32.872 88.4998 30.592C88.2358 28.288 87.9718 26.68 87.7078 25.768C87.0838 25.648 86.5318 25.408 86.0518 25.048C85.5958 24.664 85.3678 24.208 85.3678 23.68C85.3678 23.128 85.6078 22.732 86.0878 22.492C86.5918 22.252 87.1558 22.132 87.7798 22.132C88.4278 22.132 89.0038 22.288 89.5078 22.6C90.1798 22.048 90.7198 21.4 91.1278 20.656C91.5598 19.888 91.7758 18.868 91.7758 17.596C91.7758 16.3 91.3438 15.268 90.4798 14.5C89.6158 13.732 88.3438 13.348 86.6638 13.348C85.0078 13.348 83.7358 13.48 82.8478 13.744C81.9598 14.008 81.1918 14.296 80.5438 14.608C79.9198 14.92 79.3558 15.208 78.8518 15.472C78.3718 15.736 77.9158 15.868 77.4838 15.868C77.0518 15.868 76.8358 15.736 76.8358 15.472C76.8358 15.184 77.0638 14.728 77.5198 14.104C77.9758 13.48 78.6478 12.856 79.5358 12.232C81.7678 10.672 84.2878 9.904 87.0958 9.928C89.9038 9.928 92.2198 10.456 94.0438 11.512C96.1798 12.76 97.2478 14.632 97.2478 17.128C97.2718 19.192 96.7318 20.908 95.6278 22.276C94.5238 23.644 93.1558 24.628 91.5238 25.228C91.8838 26.02 92.1718 26.872 92.3878 27.784C92.6278 28.696 92.8558 29.536 93.0718 30.304C93.2878 31.072 93.5278 31.708 93.7918 32.212C94.0798 32.716 94.4158 32.968 94.7998 32.968C95.2078 32.968 95.6878 32.74 96.2398 32.284C96.8158 31.804 97.3798 31.288 97.9318 30.736C98.4838 30.184 98.9758 29.68 99.4078 29.224C99.8638 28.744 100.188 28.504 100.38 28.504ZM84.7198 15.544C85.0318 15.544 85.1878 15.952 85.1878 16.768C85.1878 17.584 85.1398 18.352 85.0438 19.072C84.8278 20.464 84.5518 21.76 84.2158 22.96C83.3518 26.224 82.9198 28.132 82.9198 28.684V33.976C82.9198 35.272 82.4278 36.16 81.4438 36.64C80.9878 36.856 80.5438 37.06 80.1118 37.252C79.7038 37.444 79.2358 37.54 78.7078 37.54C77.6998 37.54 77.1958 36.388 77.1958 34.084C77.1958 31.756 77.7358 28.828 78.8158 25.3C79.8958 21.772 81.0238 19.084 82.1998 17.236C82.4398 16.876 82.7878 16.504 83.2438 16.12C83.6998 15.736 84.1918 15.544 84.7198 15.544ZM127.206 28.504C127.614 28.504 127.818 29.056 127.818 30.16C127.818 30.76 127.566 31.492 127.062 32.356C126.558 33.196 125.898 33.976 125.082 34.696C124.29 35.392 123.402 35.968 122.418 36.424C121.434 36.88 120.474 37.108 119.538 37.108C118.122 37.108 117.138 36.76 116.586 36.064C116.058 35.344 115.794 34.3 115.794 32.932C115.794 31.54 116.334 29.164 117.414 25.804C114.102 25.66 111.69 25.588 110.178 25.588H109.674C109.242 28.252 109.026 31.048 109.026 33.976C109.026 35.272 108.534 36.16 107.55 36.64C107.094 36.856 106.65 37.06 106.218 37.252C105.81 37.444 105.366 37.54 104.886 37.54C103.686 37.54 103.086 36.46 103.086 34.3C103.086 32.14 103.578 29.368 104.562 25.984C103.506 26.104 102.57 26.224 101.754 26.344C100.962 26.464 100.338 26.524 99.882 26.524C99.426 26.524 99.198 26.404 99.198 26.164C99.198 25.444 99.786 24.712 100.962 23.968C102.162 23.224 103.782 22.66 105.822 22.276C108.078 16.54 110.838 12.712 114.102 10.792C115.302 10.072 116.574 9.712 117.918 9.712C120.318 9.736 122.046 10.384 123.102 11.656C124.182 12.928 124.722 14.62 124.722 16.732C124.746 18.82 124.11 21.544 122.814 24.904C122.334 26.2 121.89 27.376 121.482 28.432C121.074 29.488 120.87 30.34 120.87 30.988C120.87 31.636 120.918 32.128 121.014 32.464C121.11 32.8 121.338 32.968 121.698 32.968C122.346 32.968 123.87 31.72 126.27 29.224C126.702 28.744 127.014 28.504 127.206 28.504ZM119.538 17.776C119.538 15.688 118.758 14.644 117.198 14.644C115.614 14.644 114.246 15.316 113.094 16.66C111.966 17.98 111.09 19.756 110.466 21.988L118.638 22.096C119.238 20.176 119.538 18.736 119.538 17.776ZM161.453 28.504C161.861 28.504 162.065 29.056 162.065 30.16C162.065 30.76 161.813 31.492 161.309 32.356C160.805 33.196 160.145 33.976 159.329 34.696C158.537 35.392 157.649 35.968 156.665 36.424C155.681 36.88 154.637 37.108 153.533 37.108C152.453 37.108 151.601 36.76 150.977 36.064C150.377 35.344 150.077 34.552 150.077 33.688C150.077 32.8 150.221 31.804 150.509 30.7C150.797 29.596 151.109 28.444 151.445 27.244C152.357 24.052 152.825 21.808 152.849 20.512C152.849 19.96 152.777 19.54 152.633 19.252C152.489 18.94 152.213 18.784 151.805 18.784C151.085 18.784 150.317 19.216 149.501 20.08C148.685 20.944 147.917 22.048 147.197 23.392C145.541 26.464 144.665 29.464 144.569 32.392C144.617 32.728 144.665 33.064 144.713 33.4C144.761 33.736 144.785 34.096 144.785 34.48C144.785 35.248 144.401 35.956 143.633 36.604C142.889 37.228 142.049 37.54 141.113 37.54C140.561 37.54 140.153 37.276 139.889 36.748C139.625 36.196 139.493 35.524 139.493 34.732C139.493 33.94 139.673 32.86 140.033 31.492C140.393 30.124 140.789 28.672 141.221 27.136C142.373 23.08 142.961 20.056 142.985 18.064C142.985 17.056 142.853 16.264 142.589 15.688C142.349 15.112 141.869 14.824 141.149 14.824C139.853 14.824 138.569 15.748 137.297 17.596C136.025 19.444 134.885 22.312 133.877 26.2C133.613 27.208 133.409 28.084 133.265 28.828L133.229 29.512C133.685 31.72 133.913 33.16 133.913 33.832C133.913 35.224 133.421 36.16 132.437 36.64C131.981 36.856 131.537 37.06 131.105 37.252C130.697 37.444 130.253 37.54 129.773 37.54C128.573 37.54 127.973 36.4 127.973 34.12C127.973 31.816 128.609 27.328 129.881 20.656C130.337 18.256 130.565 16.912 130.565 16.624C130.565 14.68 130.073 13.708 129.089 13.708C128.753 13.708 128.441 13.804 128.153 13.996C127.889 14.188 127.613 14.392 127.325 14.608C127.061 14.824 126.785 15.028 126.497 15.22C126.209 15.412 125.873 15.508 125.489 15.508C125.129 15.508 124.949 15.184 124.949 14.536C124.949 13.216 125.561 12.136 126.785 11.296C127.961 10.432 129.389 10 131.069 10C133.229 10 134.501 11.008 134.885 13.024C134.981 13.624 135.053 14.26 135.101 14.932C136.877 11.596 139.121 9.928 141.833 9.928C144.785 9.928 146.477 11.344 146.909 14.176C147.053 14.992 147.113 15.868 147.089 16.804V17.092C148.649 14.932 150.497 13.852 152.633 13.852C155.657 13.852 157.169 15.676 157.169 19.324C157.169 20.908 156.917 22.768 156.413 24.904C155.933 27.016 155.573 28.54 155.333 29.476C155.117 30.388 155.009 31.096 155.009 31.6C155.009 32.512 155.321 32.968 155.945 32.968C156.593 32.968 158.117 31.72 160.517 29.224C160.949 28.744 161.261 28.504 161.453 28.504ZM172.441 20.944C174.529 20.944 175.573 21.472 175.573 22.528C175.573 23.752 174.373 24.364 171.973 24.364C171.445 24.364 170.869 24.268 170.245 24.076C169.549 24.556 169.009 25.156 168.625 25.876C168.265 26.596 168.085 27.64 168.085 29.008C168.085 30.352 168.613 31.348 169.669 31.996C170.749 32.644 172.009 32.968 173.449 32.968C174.913 32.968 176.089 32.74 176.977 32.284C177.889 31.804 178.681 31.288 179.353 30.736C180.025 30.184 180.565 29.68 180.973 29.224C181.405 28.744 181.717 28.504 181.909 28.504C182.101 28.504 182.257 28.636 182.377 28.9C182.497 29.14 182.557 29.464 182.557 29.872C182.557 31.792 181.489 33.484 179.353 34.948C177.241 36.388 174.709 37.108 171.757 37.108C167.149 37.108 164.161 35.776 162.793 33.112C162.313 32.176 162.073 31.048 162.073 29.728C162.073 26.296 163.789 23.896 167.221 22.528C165.469 21.304 164.593 19.456 164.593 16.984C164.593 15.808 164.917 14.716 165.565 13.708C164.965 13.036 164.473 12.328 164.089 11.584C163.729 10.84 163.549 10.276 163.549 9.892C163.549 9.22 163.789 8.884 164.269 8.884C164.605 8.884 165.013 9.148 165.493 9.676C165.997 10.18 166.405 10.588 166.717 10.9C167.029 11.212 167.353 11.464 167.689 11.656C169.729 10.408 172.129 9.784 174.889 9.784C177.649 9.784 179.485 10.552 180.397 12.088C180.733 12.664 180.901 13.372 180.901 14.212C180.901 15.484 180.349 16.552 179.245 17.416C178.141 18.28 176.689 18.712 174.889 18.712C173.089 18.712 171.409 18.136 169.849 16.984C169.825 17.08 169.813 17.176 169.813 17.272V18.064C169.813 18.496 169.945 19.012 170.209 19.612C170.497 20.188 170.845 20.668 171.253 21.052C171.613 20.98 172.009 20.944 172.441 20.944ZM176.905 14.752C176.905 13.816 176.137 13.348 174.601 13.348C173.065 13.348 171.829 13.816 170.893 14.752C172.189 15.544 173.509 15.94 174.853 15.94C176.221 15.94 176.905 15.544 176.905 14.752ZM185.772 29.404C185.772 31.492 186.66 32.536 188.436 32.536C190.38 32.536 191.688 31.864 192.36 30.52C192.6 30.04 192.72 29.428 192.72 28.684C192.72 27.916 192.54 27.208 192.18 26.56C191.58 25.528 190.548 24.388 189.084 23.14C186.66 21.076 185.448 18.94 185.448 16.732C185.448 14.5 186.144 12.784 187.536 11.584C188.928 10.384 190.524 9.784 192.324 9.784C194.124 9.784 195.552 10.24 196.608 11.152C197.664 12.064 198.191 13.432 198.191 15.256C198.191 16.456 197.784 17.5 196.968 18.388C196.176 19.276 195.12 19.828 193.8 20.044C194.4 20.548 195 21.064 195.6 21.592C196.176 22.12 196.704 22.696 197.184 23.32C198.24 24.736 198.768 26.428 198.768 28.396C198.768 29.764 198.444 31 197.796 32.104C197.172 33.208 196.344 34.144 195.312 34.912C194.304 35.656 193.164 36.232 191.892 36.64C190.62 37.048 189.432 37.252 188.328 37.252C185.976 37.252 184.152 36.712 182.856 35.632C181.344 34.408 180.588 32.644 180.588 30.34C180.588 28.828 181.08 27.364 182.063 25.948C183.048 24.532 184.092 23.824 185.196 23.824C186.06 23.824 186.492 24.088 186.492 24.616C186.492 25.384 186.372 26.152 186.132 26.92C185.892 27.664 185.772 28.492 185.772 29.404ZM192.756 19.18C194.124 17.812 194.808 16.384 194.808 14.896C194.808 14.44 194.568 14.056 194.088 13.744C193.56 13.456 193.008 13.312 192.432 13.312C191.136 13.312 190.2 13.732 189.624 14.572C189.912 15.604 190.332 16.48 190.884 17.2C191.46 17.92 192.084 18.58 192.756 19.18Z" fill="url(#paint0_linear_4_29)"/>
<path d="M26 0L48.5167 42.75H3.48334L26 0Z" fill="#DE4D86"/>
<path d="M26.1079 6.58427L42.3637 39.635L10.3112 39.8837L26.1079 6.58427Z" fill="#64113F"/>
<defs>
<linearGradient id="paint0_linear_4_29" x1="52" y1="24" x2="201" y2="24" gradientUnits="userSpaceOnUse">
<stop offset="0.3" stop-color="#64113F"/>
<stop offset="1" stop-color="#CA227F"/>
</linearGradient>
</defs>
</svg>
